<svg width="34" height="34" viewBox="0 0 34 34" fill="none" xmlns="http://www.w3.org/2000/svg">
<path d="M16.9996 12.75V18.4167M16.9996 24.0834H17.0138M14.5771 5.46838L2.57794 25.5C2.33054 25.9285 2.19964 26.4142 2.19825 26.9089C2.19687 27.4037 2.32505 27.8901 2.57004 28.32C2.81503 28.7498 3.1683 29.1079 3.59469 29.3588C4.02108 29.6097 4.50573 29.7446 5.00044 29.75H28.9988C29.4935 29.7446 29.9781 29.6097 30.4045 29.3588C30.8309 29.1079 31.1842 28.7498 31.4292 28.32C31.6742 27.8901 31.8023 27.4037 31.801 26.9089C31.7996 26.4142 31.6687 25.9285 31.4213 25.5L19.4221 5.46838C19.1696 5.05203 18.814 4.7078 18.3896 4.4689C17.9653 4.23 17.4866 4.10449 16.9996 4.10449C16.5126 4.10449 16.0339 4.23 15.6096 4.4689C15.1852 4.7078 14.8297 5.05203 14.5771 5.46838Z" stroke="#FF9500" stroke-width="4" stroke-linecap="round" stroke-linejoin="round"/>
</svg>
