<svg width="125" height="44" viewBox="0 0 125 44" fill="none" xmlns="http://www.w3.org/2000/svg">
<path d="M0 12C0 5.37258 5.37258 0 12 0H113C119.627 0 125 5.37258 125 12V32C125 38.6274 119.627 44 113 44H12C5.37259 44 0 38.6274 0 32V12Z" fill="#FA762D"/>
<path d="M17.074 28V16.8H21.906C23.154 16.8 24.1193 17.0507 24.802 17.552C25.4953 18.0533 25.842 18.7627 25.842 19.68C25.842 20.288 25.698 20.8 25.41 21.216C25.1327 21.632 24.7487 21.9467 24.258 22.16C23.778 22.3733 23.25 22.48 22.674 22.48L22.946 22.096C23.6607 22.096 24.274 22.208 24.786 22.432C25.3087 22.6453 25.714 22.9707 26.002 23.408C26.29 23.8347 26.434 24.368 26.434 25.008C26.434 25.9573 26.082 26.6933 25.378 27.216C24.6847 27.7387 23.634 28 22.226 28H17.074ZM18.258 27.024H22.21C23.1913 27.024 23.9433 26.8587 24.466 26.528C24.9887 26.1867 25.25 25.648 25.25 24.912C25.25 24.1867 24.9887 23.6587 24.466 23.328C23.9433 22.9867 23.1913 22.816 22.21 22.816H18.13V21.84H21.826C22.722 21.84 23.4153 21.6693 23.906 21.328C24.4073 20.9867 24.658 20.48 24.658 19.808C24.658 19.1253 24.4073 18.6187 23.906 18.288C23.4153 17.9467 22.722 17.776 21.826 17.776H18.258V27.024ZM32.3685 28.08C31.6538 28.08 31.0298 27.9467 30.4965 27.68C29.9632 27.4133 29.5472 27.0133 29.2485 26.48C28.9605 25.9467 28.8165 25.28 28.8165 24.48V19.6H29.9525V24.352C29.9525 25.248 30.1712 25.9253 30.6085 26.384C31.0565 26.832 31.6805 27.056 32.4805 27.056C33.0672 27.056 33.5738 26.9387 34.0005 26.704C34.4378 26.4587 34.7685 26.1067 34.9925 25.648C35.2272 25.1893 35.3445 24.64 35.3445 24V19.6H36.4805V28H35.3925V25.696L35.5685 26.112C35.3018 26.7307 34.8858 27.216 34.3205 27.568C33.7658 27.9093 33.1152 28.08 32.3685 28.08ZM41.9025 28.08C41.2092 28.08 40.5532 27.984 39.9345 27.792C39.3158 27.5893 38.8305 27.3387 38.4785 27.04L38.9905 26.144C39.3318 26.4 39.7692 26.624 40.3025 26.816C40.8358 26.9973 41.3958 27.088 41.9825 27.088C42.7825 27.088 43.3585 26.9653 43.7105 26.72C44.0625 26.464 44.2385 26.128 44.2385 25.712C44.2385 25.4027 44.1372 25.1627 43.9345 24.992C43.7425 24.8107 43.4865 24.6773 43.1665 24.592C42.8465 24.496 42.4892 24.416 42.0945 24.352C41.6998 24.288 41.3052 24.2133 40.9105 24.128C40.5265 24.0427 40.1745 23.92 39.8545 23.76C39.5345 23.5893 39.2732 23.36 39.0705 23.072C38.8785 22.784 38.7825 22.4 38.7825 21.92C38.7825 21.4613 38.9105 21.0507 39.1665 20.688C39.4225 20.3253 39.7958 20.0427 40.2865 19.84C40.7878 19.6267 41.3958 19.52 42.1105 19.52C42.6545 19.52 43.1985 19.5947 43.7425 19.744C44.2865 19.8827 44.7345 20.0693 45.0865 20.304L44.5905 21.216C44.2172 20.96 43.8172 20.7787 43.3905 20.672C42.9638 20.5547 42.5372 20.496 42.1105 20.496C41.3532 20.496 40.7932 20.6293 40.4305 20.896C40.0785 21.152 39.9025 21.4827 39.9025 21.888C39.9025 22.208 39.9985 22.4587 40.1905 22.64C40.3932 22.8213 40.6545 22.9653 40.9745 23.072C41.3052 23.168 41.6625 23.248 42.0465 23.312C42.4412 23.376 42.8305 23.456 43.2145 23.552C43.6092 23.6373 43.9665 23.76 44.2865 23.92C44.6172 24.0693 44.8785 24.288 45.0705 24.576C45.2732 24.8533 45.3745 25.2213 45.3745 25.68C45.3745 26.1707 45.2358 26.5973 44.9585 26.96C44.6918 27.312 44.2972 27.5893 43.7745 27.792C43.2625 27.984 42.6385 28.08 41.9025 28.08ZM50.947 28.08C50.115 28.08 49.3683 27.8987 48.707 27.536C48.0563 27.1627 47.5443 26.656 47.171 26.016C46.7977 25.3653 46.611 24.624 46.611 23.792C46.611 22.9493 46.7977 22.208 47.171 21.568C47.5443 20.928 48.0563 20.4267 48.707 20.064C49.3683 19.7013 50.115 19.52 50.947 19.52C51.6617 19.52 52.307 19.6587 52.883 19.936C53.459 20.2133 53.9123 20.6293 54.243 21.184L53.395 21.76C53.107 21.3333 52.7497 21.0187 52.323 20.816C51.8963 20.6133 51.4323 20.512 50.931 20.512C50.3337 20.512 49.795 20.6507 49.315 20.928C48.835 21.1947 48.4563 21.5733 48.179 22.064C47.9017 22.5547 47.763 23.1307 47.763 23.792C47.763 24.4533 47.9017 25.0293 48.179 25.52C48.4563 26.0107 48.835 26.3947 49.315 26.672C49.795 26.9387 50.3337 27.072 50.931 27.072C51.4323 27.072 51.8963 26.9707 52.323 26.768C52.7497 26.5653 53.107 26.256 53.395 25.84L54.243 26.416C53.9123 26.96 53.459 27.376 52.883 27.664C52.307 27.9413 51.6617 28.08 50.947 28.08ZM61.7386 28V26.144L61.6906 25.84V22.736C61.6906 22.0213 61.488 21.472 61.0826 21.088C60.688 20.704 60.096 20.512 59.3066 20.512C58.7626 20.512 58.2453 20.6027 57.7546 20.784C57.264 20.9653 56.848 21.2053 56.5066 21.504L55.9946 20.656C56.4213 20.2933 56.9333 20.016 57.5306 19.824C58.128 19.6213 58.7573 19.52 59.4186 19.52C60.5066 19.52 61.344 19.792 61.9306 20.336C62.528 20.8693 62.8266 21.6853 62.8266 22.784V28H61.7386ZM58.8426 28.08C58.2133 28.08 57.664 27.9787 57.1946 27.776C56.736 27.5627 56.384 27.2747 56.1386 26.912C55.8933 26.5387 55.7706 26.112 55.7706 25.632C55.7706 25.1947 55.872 24.8 56.0746 24.448C56.288 24.0853 56.6293 23.7973 57.0986 23.584C57.5786 23.36 58.2186 23.248 59.0186 23.248H61.9146V24.096H59.0506C58.24 24.096 57.6746 24.24 57.3546 24.528C57.0453 24.816 56.8906 25.1733 56.8906 25.6C56.8906 26.08 57.0773 26.464 57.4506 26.752C57.824 27.04 58.3466 27.184 59.0186 27.184C59.6586 27.184 60.208 27.04 60.6666 26.752C61.136 26.4533 61.4773 26.0267 61.6906 25.472L61.9466 26.256C61.7333 26.8107 61.36 27.2533 60.8266 27.584C60.304 27.9147 59.6426 28.08 58.8426 28.08ZM65.9121 28V19.6H67.0001V21.888L66.8881 21.488C67.1228 20.848 67.5175 20.3627 68.0721 20.032C68.6268 19.6907 69.3148 19.52 70.1361 19.52V20.624C70.0935 20.624 70.0508 20.624 70.0081 20.624C69.9655 20.6133 69.9228 20.608 69.8801 20.608C68.9948 20.608 68.3015 20.88 67.8001 21.424C67.2988 21.9573 67.0481 22.72 67.0481 23.712V28H65.9121Z" fill="white"/>
<path fill-rule="evenodd" clip-rule="evenodd" d="M93.5 19.5C93.5 22.2614 91.2614 24.5 88.5 24.5C85.7386 24.5 83.5 22.2614 83.5 19.5C83.5 16.7386 85.7386 14.5 88.5 14.5C91.2614 14.5 93.5 16.7386 93.5 19.5ZM92.5328 25.8246C91.3682 26.5687 89.9845 27 88.5 27C84.3579 27 81 23.6421 81 19.5C81 15.3579 84.3579 12 88.5 12C92.6421 12 96 15.3579 96 19.5C96 21.0483 95.5308 22.4871 94.7269 23.6818L100.832 27.7519C101.521 28.2115 101.708 29.1428 101.248 29.8321C100.789 30.5213 99.8572 30.7076 99.1679 30.2481L92.5328 25.8246Z" fill="white"/>
</svg>
