<svg width="23" height="28" viewBox="0 0 23 28" fill="none" xmlns="http://www.w3.org/2000/svg">
<path d="M0 24.1699C0 26.6699 1.2793 27.9297 3.79883 27.9297H18.291C20.8203 27.9297 22.0898 26.6504 22.0898 24.1699V11.6504C22.0898 9.16016 20.8203 7.88086 18.291 7.88086H3.79883C1.2793 7.88086 0 9.15039 0 11.6504V24.1699ZM11.0449 18.1738C10.5859 18.1738 10.1855 17.793 10.1855 17.334V4.22852L10.2539 2.37305L9.48242 3.18359L7.35352 5.41016C7.19727 5.58594 6.96289 5.67383 6.75781 5.67383C6.30859 5.67383 5.98633 5.35156 5.98633 4.91211C5.98633 4.6875 6.07422 4.51172 6.24023 4.3457L10.4199 0.283203C10.6348 0.0683594 10.8301 0 11.0449 0C11.2598 0 11.4551 0.0683594 11.6699 0.283203L15.8496 4.3457C16.0059 4.51172 16.1035 4.6875 16.1035 4.91211C16.1035 5.35156 15.7617 5.67383 15.3125 5.67383C15.1074 5.67383 14.8828 5.58594 14.7266 5.41016L12.6074 3.18359L11.8359 2.38281L11.9043 4.22852V17.334C11.9043 17.793 11.5039 18.1738 11.0449 18.1738Z" fill="#FA762D"/>
</svg>
