<svg width="21" height="19" viewBox="0 0 21 19" fill="none" xmlns="http://www.w3.org/2000/svg">
<path fill-rule="evenodd" clip-rule="evenodd" d="M12.5 7.5C12.5 10.2614 10.2614 12.5 7.5 12.5C4.73858 12.5 2.5 10.2614 2.5 7.5C2.5 4.73858 4.73858 2.5 7.5 2.5C10.2614 2.5 12.5 4.73858 12.5 7.5ZM11.5328 13.8246C10.3682 14.5687 8.98448 15 7.5 15C3.35786 15 0 11.6421 0 7.5C0 3.35786 3.35786 0 7.5 0C11.6421 0 15 3.35786 15 7.5C15 9.04832 14.5308 10.4871 13.7269 11.6818L19.8321 15.7519C20.5213 16.2115 20.7076 17.1428 20.2481 17.8321C19.7885 18.5213 18.8572 18.7076 18.1679 18.2481L11.5328 13.8246Z" fill="#FF8C2E"/>
</svg>
